<?xml version="1.0" encoding="iso-8859-1"?>
<!-- Generator: Adobe Illustrator 17.0.0, SVG Export Plug-In . SVG Version: 6.00 Build 0)  -->
<!DOCTYPE svg PUBLIC "-//W3C//DTD SVG 1.1//EN" "http://www.w3.org/Graphics/SVG/1.1/DTD/svg11.dtd">
<svg version="1.1" id="Capa_1" xmlns="http://www.w3.org/2000/svg" xmlns:xlink="http://www.w3.org/1999/xlink" x="0px" y="0px"
	 width="64px" height="64px" viewBox="0 0 64 64" style="enable-background:new 0 0 64 64;" xml:space="preserve">
<path d="M57.033,17.58l-6.708-3.873L46.453,7h-7.745L32,3.127L25.292,7h-7.745l-3.873,6.708L6.967,17.58v7.745l-3.873,6.708
	l3.873,6.708v7.745l6.708,3.873l3.873,6.708h7.745L32,60.939l6.708-3.873h7.745l3.873-6.708l6.708-3.873v-7.745l3.873-6.708
	l-3.873-6.708V17.58z M29.391,43.864c-0.539,0.539-1.249,0.801-1.956,0.791c-0.707,0.01-1.417-0.252-1.956-0.791l-8.454-8.454
	c-1.059-1.059-1.059-2.777,0-3.836l2.238-2.238c1.059-1.059,2.777-1.059,3.836,0l4.336,4.336L40.9,20.206
	c1.059-1.059,2.777-1.059,3.836,0l2.238,2.238c1.059,1.059,1.059,2.777,0,3.836L29.391,43.864z"/>
</svg>
