<?xml version="1.0" encoding="UTF-8" standalone="no"?>
<!-- Generator: Adobe Illustrator 17.0.0, SVG Export Plug-In . SVG Version: 6.00 Build 0)  -->

<svg
   xmlns:dc="http://purl.org/dc/elements/1.1/"
   xmlns:cc="http://creativecommons.org/ns#"
   xmlns:rdf="http://www.w3.org/1999/02/22-rdf-syntax-ns#"
   xmlns:svg="http://www.w3.org/2000/svg"
   xmlns="http://www.w3.org/2000/svg"
   xmlns:sodipodi="http://sodipodi.sourceforge.net/DTD/sodipodi-0.dtd"
   xmlns:inkscape="http://www.inkscape.org/namespaces/inkscape"
   version="1.1"
   id="Capa_1"
   x="0px"
   y="0px"
   width="64px"
   height="64px"
   viewBox="0 0 64 64"
   style="enable-background:new 0 0 64 64;"
   xml:space="preserve"
   inkscape:version="0.91pre2 r13516"
   sodipodi:docname="check.svg"><metadata
     id="metadata3344"><rdf:RDF><cc:Work
         rdf:about=""><dc:format>image/svg+xml</dc:format><dc:type
           rdf:resource="http://purl.org/dc/dcmitype/StillImage" /></cc:Work></rdf:RDF></metadata><defs
     id="defs3342" /><sodipodi:namedview
     pagecolor="#ffffff"
     bordercolor="#666666"
     borderopacity="1"
     objecttolerance="10"
     gridtolerance="10"
     guidetolerance="10"
     inkscape:pageopacity="0"
     inkscape:pageshadow="2"
     inkscape:window-width="961"
     inkscape:window-height="556"
     id="namedview3340"
     showgrid="false"
     inkscape:zoom="8.390625"
     inkscape:cx="14.420857"
     inkscape:cy="41.126662"
     inkscape:window-x="302"
     inkscape:window-y="61"
     inkscape:window-maximized="0"
     inkscape:current-layer="Capa_1" /><path
     d="M57.033,17.58l-6.708-3.873L46.453,7h-7.745L32,3.127L25.292,7h-7.745l-3.873,6.708L6.967,17.58v7.745l-3.873,6.708  l3.873,6.708v7.745l6.708,3.873l3.873,6.708h7.745L32,60.939l6.708-3.873h7.745l3.873-6.708l6.708-3.873v-7.745l3.873-6.708  l-3.873-6.708V17.58z M29.391,43.864c-0.539,0.539-1.249,0.801-1.956,0.791c-0.707,0.01-1.417-0.252-1.956-0.791l-8.454-8.454  c-1.059-1.059-1.059-2.777,0-3.836l2.238-2.238c1.059-1.059,2.777-1.059,3.836,0l4.336,4.336L40.9,20.206  c1.059-1.059,2.777-1.059,3.836,0l2.238,2.238c1.059,1.059,1.059,2.777,0,3.836L29.391,43.864z"
     id="path3338"
     style="fill:#0a8a0a;fill-opacity:0.94117647" /></svg>