<?xml version="1.0" encoding="UTF-8" standalone="no"?>
<!-- Generator: Adobe Illustrator 16.0.4, SVG Export Plug-In . SVG Version: 6.00 Build 0)  -->

<svg
   xmlns:dc="http://purl.org/dc/elements/1.1/"
   xmlns:cc="http://creativecommons.org/ns#"
   xmlns:rdf="http://www.w3.org/1999/02/22-rdf-syntax-ns#"
   xmlns:svg="http://www.w3.org/2000/svg"
   xmlns="http://www.w3.org/2000/svg"
   xmlns:sodipodi="http://sodipodi.sourceforge.net/DTD/sodipodi-0.dtd"
   xmlns:inkscape="http://www.inkscape.org/namespaces/inkscape"
   version="1.1"
   id="Capa_1"
   x="0px"
   y="0px"
   width="512px"
   height="512px"
   viewBox="0 0 512 512"
   enable-background="new 0 0 512 512"
   xml:space="preserve"
   inkscape:version="0.91pre2 r13516"
   sodipodi:docname="arrow455.svg"><metadata
     id="metadata4162"><rdf:RDF><cc:Work
         rdf:about=""><dc:format>image/svg+xml</dc:format><dc:type
           rdf:resource="http://purl.org/dc/dcmitype/StillImage" /></cc:Work></rdf:RDF></metadata><defs
     id="defs4160" /><sodipodi:namedview
     pagecolor="#ffffff"
     bordercolor="#666666"
     borderopacity="1"
     objecttolerance="10"
     gridtolerance="10"
     guidetolerance="10"
     inkscape:pageopacity="0"
     inkscape:pageshadow="2"
     inkscape:window-width="686"
     inkscape:window-height="480"
     id="namedview4158"
     showgrid="false"
     inkscape:zoom="0.4609375"
     inkscape:cx="256"
     inkscape:cy="256"
     inkscape:window-x="268"
     inkscape:window-y="88"
     inkscape:window-maximized="0"
     inkscape:current-layer="Capa_1" /><path
     d="M256,0C114.615,0,0,114.615,0,256s114.615,256,256,256s256-114.615,256-256S397.385,0,256,0z M256,464  c-114.875,0-208-93.125-208-208S141.125,48,256,48s208,93.125,208,208S370.875,464,256,464z M406.628,233.373l-128.001-128  c-12.496-12.497-32.757-12.497-45.254,0s-12.497,32.758,0,45.255L306.745,224H128c-17.673,0-32,14.327-32,32s14.327,32,32,32  h178.745l-73.373,73.372c-12.497,12.497-12.497,32.759,0,45.256C239.621,412.876,247.811,416,256,416  c8.189,0,16.379-3.124,22.627-9.372l128.001-128C419.124,266.131,419.124,245.869,406.628,233.373z"
     id="path4156"
     style="fill:#67764e;fill-opacity:1" /></svg>